<svg width="34" height="34" viewBox="0 0 34 34" fill="none" xmlns="http://www.w3.org/2000/svg">
<path fill-rule="evenodd" clip-rule="evenodd" d="M31 17C31 24.732 24.732 31 17 31C9.26801 31 3 24.732 3 17C3 9.26801 9.26801 3 17 3C24.732 3 31 9.26801 31 17ZM34 17C34 26.3888 26.3888 34 17 34C7.61116 34 0 26.3888 0 17C0 7.61116 7.61116 0 17 0C26.3888 0 34 7.61116 34 17ZM25.5195 20.8263C25.9256 20.1043 25.6695 19.1897 24.9475 18.7835C24.2255 18.3774 23.3109 18.6335 22.9048 19.3555C22.106 20.7756 21.1725 21.6114 20.2291 22.0909C19.2768 22.5749 18.2205 22.743 17.1163 22.6762C14.8608 22.5399 12.5798 21.4304 11.1813 20.4203C10.5097 19.9353 9.57205 20.0865 9.08701 20.7581C8.60197 21.4297 8.75321 22.3673 9.42479 22.8524C11.1172 24.0747 13.9362 25.4894 16.9352 25.6708C18.4582 25.7628 20.0679 25.5381 21.5883 24.7653C23.1177 23.9881 24.4637 22.7032 25.5195 20.8263Z" fill="#C42131"/>
</svg>
