<svg width="31" height="40" viewBox="0 0 31 40" fill="none" xmlns="http://www.w3.org/2000/svg">
<path fill-rule="evenodd" clip-rule="evenodd" d="M14.6667 0C10.9848 0 8 2.98477 8 6.66667V9.97781C3.43552 10.9044 0 14.9399 0 19.7778V30C0 35.5228 4.47715 40 10 40H20.2222C25.7451 40 30.2222 35.5229 30.2222 30V19.7778C30.2222 14.9399 26.7867 10.9044 22.2222 9.97781V6.66667C22.2222 2.98477 19.2375 0 15.5556 0H14.6667ZM22.2222 17.8537C22.74 18.0368 23.1109 18.5307 23.1109 19.1111C23.1109 19.8475 22.5139 20.4445 21.7776 20.4445C21.0412 20.4445 20.4442 19.8475 20.4442 19.1111C20.4442 18.5305 20.8154 18.0366 21.3333 17.8536V12.8655C20.9715 12.8078 20.6003 12.7778 20.2222 12.7778H10C9.62188 12.7778 9.25076 12.8078 8.88889 12.8655V17.8536C9.40675 18.0367 9.77778 18.5306 9.77778 19.1111C9.77778 19.8475 9.18082 20.4444 8.44444 20.4444C7.70806 20.4444 7.11111 19.8475 7.11111 19.1111C7.11111 18.5306 7.48214 18.0367 8 17.8536V13.0677C5.10851 13.9282 3 16.6068 3 19.7778V30C3 33.866 6.134 37 10 37H20.2222C24.0882 37 27.2222 33.866 27.2222 30V19.7778C27.2222 16.6068 25.1137 13.9282 22.2222 13.0677V17.8537ZM21.3333 9.83881V7.11111C21.3333 3.67467 18.5475 0.888889 15.1111 0.888889C11.6747 0.888889 8.88889 3.67467 8.88889 7.11111V9.83881C9.2537 9.79848 9.62443 9.77778 10 9.77778H20.2222C20.5978 9.77778 20.9685 9.79848 21.3333 9.83881Z" fill="#C42131"/>
</svg>
