<svg width="734" height="225" viewBox="0 0 734 225" fill="none" xmlns="http://www.w3.org/2000/svg">
<path fill-rule="evenodd" clip-rule="evenodd" d="M48.6816 0.7677C22.172 0.7677 0.681641 22.258 0.681641 48.7677V176.565C0.681641 203.075 22.1719 224.565 48.6816 224.565H685.888C712.398 224.565 733.888 203.075 733.888 176.565V48.7677C733.888 22.258 712.398 0.7677 685.888 0.7677H48.6816ZM148.778 155.237C148.778 153.584 148.337 152.042 147.456 150.609L117.705 108.462L144.811 71.7692C145.692 70.5572 146.133 69.0145 146.133 67.1413C146.133 64.7172 145.362 62.5685 143.819 60.6953C142.277 58.8221 140.183 57.8855 137.539 57.8855C135.996 57.8855 134.674 58.216 133.572 58.8772C132.47 59.4281 131.423 60.4198 130.431 61.8523L102.829 100.363H95.3913V66.8108C95.3913 64.2764 94.5649 62.1828 92.9121 60.53C91.2593 58.767 89.2208 57.8855 86.7966 57.8855C84.2623 57.8855 82.0585 58.8221 80.1853 60.6953C78.4223 62.4583 77.5408 64.5519 77.5408 66.976V155.072C77.5408 157.606 78.4223 159.755 80.1853 161.518C82.0585 163.281 84.2623 164.162 86.7966 164.162C89.331 164.162 91.3694 163.281 92.9121 161.518C94.5649 159.755 95.3913 157.551 95.3913 154.907V118.214H102.829L132.58 159.535C133.572 160.967 134.674 162.124 135.886 163.005C137.208 163.777 138.475 164.162 139.687 164.162C142.332 164.162 144.48 163.281 146.133 161.518C147.896 159.645 148.778 157.551 148.778 155.237ZM161.508 75.4055C158.423 81.0251 156.881 87.1406 156.881 93.7519V128.792C156.881 135.293 158.478 141.353 161.674 146.973C164.869 152.482 169.277 156.89 174.896 160.196C180.626 163.501 187.017 165.154 194.069 165.154C201.121 165.154 207.457 163.501 213.077 160.196C218.807 156.89 223.269 152.482 226.465 146.973C229.77 141.353 231.423 135.293 231.423 128.792V93.7519C231.423 87.2508 229.825 81.1904 226.63 75.5708C223.434 69.9511 218.972 65.4885 213.242 62.1828C207.622 58.767 201.231 57.0591 194.069 57.0591C186.907 57.0591 180.461 58.7119 174.731 62.0175C169.111 65.3232 164.704 69.7859 161.508 75.4055ZM180.351 142.18C176.714 138.654 174.896 133.805 174.896 127.635V94.413C174.896 88.4628 176.714 83.7247 180.351 80.1987C184.097 76.6726 188.67 74.9096 194.069 74.9096C199.468 74.9096 204.041 76.6726 207.788 80.1987C211.644 83.7247 213.573 88.4628 213.573 94.413V127.635C213.573 133.805 211.699 138.654 207.953 142.18C204.207 145.596 199.579 147.304 194.069 147.304C188.67 147.304 184.097 145.596 180.351 142.18ZM307.114 67.6372C300.392 61.4666 291.742 58.3813 281.164 58.3813H258.851C256.427 58.3813 254.333 59.2628 252.57 61.0258C250.807 62.7889 249.926 64.8825 249.926 67.3066V155.402C249.926 157.827 250.752 159.92 252.405 161.683C254.168 163.336 256.317 164.162 258.851 164.162C261.275 164.162 263.369 163.171 265.132 161.187C267.005 159.204 267.942 156.945 267.942 154.411V133.42H280.999C292.018 133.42 300.833 130.279 307.444 123.999C314.056 117.608 317.361 108.738 317.361 97.3881V94.9089C317.361 82.7881 313.945 73.6975 307.114 67.6372ZM279.842 116.065H267.942V76.3972H280.007C286.729 76.3972 291.632 77.9398 294.718 81.0251C297.913 84.0002 299.511 88.6281 299.511 94.9089V97.0575C299.511 104.55 297.748 109.619 294.222 112.264C290.806 114.798 286.013 116.065 279.842 116.065ZM389.763 120.032C387.669 115.735 384.639 112.319 380.672 109.784C384.749 107.47 387.78 104.385 389.763 100.528C391.857 96.6719 392.903 92.1542 392.903 86.9753C392.903 77.6092 390.094 70.447 384.474 65.4885C378.965 60.4198 370.645 57.8855 359.516 57.8855H356.376C350.866 57.8855 345.632 59.1526 340.674 61.687C335.826 64.1111 332.3 67.1413 330.096 70.7775C328.553 73.3119 327.782 75.4606 327.782 77.2236C327.782 79.8681 328.608 81.9617 330.261 83.5043C331.914 84.9368 333.842 85.653 336.046 85.653C338.25 85.653 340.013 84.9368 341.335 83.5043C343.098 80.8598 345.137 78.9315 347.451 77.7194C349.765 76.5074 352.85 75.9013 356.706 75.9013H359.682C364.309 75.9013 368.001 76.9481 370.755 79.0417C373.51 81.0251 374.888 84.0002 374.888 87.967C374.888 92.1542 373.675 95.2945 371.251 97.3881C368.827 99.4817 365.632 100.528 361.665 100.528H352.409C349.544 100.528 347.285 101.355 345.632 103.008C343.98 104.661 343.153 106.864 343.153 109.619C343.153 112.374 343.98 114.522 345.632 116.065C347.285 117.608 349.544 118.379 352.409 118.379H360.177C364.695 118.379 368.276 119.591 370.921 122.015C373.565 124.329 374.888 127.69 374.888 132.098C374.888 136.395 373.51 139.756 370.755 142.18C368.001 144.494 364.309 145.651 359.682 145.651H356.376C352.74 145.651 349.765 145.045 347.451 143.833C345.137 142.621 343.098 140.747 341.335 138.213C340.123 136.67 338.305 135.899 335.881 135.899C333.787 135.899 331.914 136.615 330.261 138.048C328.719 139.37 327.892 141.243 327.782 143.667C327.672 145.981 328.443 148.295 330.096 150.609C332.41 154.356 335.936 157.496 340.674 160.03C345.522 162.455 350.701 163.667 356.211 163.667H359.516C381.774 163.446 392.903 153.474 392.903 133.75C392.903 128.792 391.857 124.219 389.763 120.032ZM480.989 60.3647C479.336 58.4915 477.353 57.5549 475.039 57.5549C471.513 57.5549 468.978 58.767 467.436 61.1911L426.446 125.817V66.4802C426.446 64.056 425.564 61.9625 423.801 60.1994C422.038 58.4364 419.889 57.5549 417.355 57.5549C414.821 57.5549 412.672 58.4364 410.909 60.1994C409.256 61.9625 408.43 64.056 408.43 66.4802V156.559C408.43 158.984 409.146 160.912 410.578 162.344C412.121 163.667 413.994 164.328 416.198 164.328C419.834 164.328 422.479 163.171 424.132 160.857L465.783 95.2394V155.237C465.783 157.882 466.609 160.085 468.262 161.849C470.025 163.501 472.174 164.328 474.708 164.328C477.243 164.328 479.336 163.446 480.989 161.683C482.752 159.92 483.633 157.772 483.633 155.237V66.8108C483.633 64.3866 482.752 62.2379 480.989 60.3647ZM571.297 60.53C569.644 58.767 567.55 57.8855 565.016 57.8855C562.592 57.8855 560.443 58.767 558.57 60.53C556.807 62.1828 555.925 64.2213 555.925 66.6455V102.347H520.059V66.6455C520.059 64.2213 519.177 62.1828 517.414 60.53C515.651 58.767 513.558 57.8855 511.134 57.8855C508.71 57.8855 506.616 58.767 504.853 60.53C503.09 62.1828 502.208 64.2213 502.208 66.6455V155.402C502.208 157.827 503.09 159.92 504.853 161.683C506.616 163.336 508.71 164.162 511.134 164.162C513.558 164.162 515.651 163.336 517.414 161.683C519.177 159.92 520.059 157.827 520.059 155.402V120.197H555.925V155.402C555.925 157.827 556.807 159.92 558.57 161.683C560.333 163.336 562.482 164.162 565.016 164.162C567.44 164.162 569.479 163.336 571.131 161.683C572.895 159.92 573.776 157.827 573.776 155.402V66.6455C573.776 64.2213 572.95 62.1828 571.297 60.53ZM669.88 155.733C669.88 154.301 669.66 152.978 669.219 151.766L637.485 63.3398C636.824 61.687 635.722 60.3647 634.179 59.373C632.637 58.3813 630.874 57.8855 628.89 57.8855C626.907 57.8855 625.144 58.3813 623.601 59.373C622.169 60.3647 621.122 61.687 620.461 63.3398L588.396 151.601C587.955 152.813 587.735 154.08 587.735 155.402C587.735 157.937 588.561 160.03 590.214 161.683C591.977 163.336 594.181 164.162 596.825 164.162C598.588 164.162 600.241 163.667 601.784 162.675C603.326 161.683 604.318 160.361 604.759 158.708L609.387 143.998H648.394L653.021 158.708C653.462 160.471 654.399 161.849 655.831 162.84C657.374 163.722 659.027 164.162 660.79 164.162C663.655 164.162 665.858 163.391 667.401 161.849C669.054 160.196 669.88 158.157 669.88 155.733ZM642.939 126.643H615.006L628.89 82.6779L642.939 126.643Z" fill="#C42131"/>
</svg>
