<svg width="276" height="309" viewBox="0 0 276 309" fill="none" xmlns="http://www.w3.org/2000/svg">
<path fill-rule="evenodd" clip-rule="evenodd" d="M195.188 34.9943C185.197 19.0443 175.977 4.91935 174.699 3.60635C171.593 0.415347 163.885 -0.325669 159.97 2.19033C156.764 4.24933 154.22 9.10435 154.228 13.1453C154.232 14.9083 156.628 19.8063 160.515 25.9943C163.97 31.4943 173.562 46.7944 181.832 59.9944C190.101 73.1944 206.726 99.5194 218.776 118.494C230.827 137.469 244.027 158.323 248.11 164.837C255.772 177.059 258.403 179.494 263.948 179.494C268.625 179.494 271.876 177.821 274.102 174.269C277.845 168.297 276.67 165.025 263.037 143.457C246.36 117.074 238.1 103.506 238.1 102.496C238.1 102.032 239.336 101.374 240.846 101.033C244.843 100.132 252.755 94.0224 254.631 90.3874C257.041 85.7204 255.907 82.2084 247.906 69.5594C240.441 57.7564 236.92 54.5023 231.61 54.5003C228.477 54.4993 217.601 60.4684 215.504 63.3394C214.841 64.2484 214.085 64.7673 213.824 64.4923C213.564 64.2183 205.177 50.9443 195.188 34.9943ZM201.574 120.825C201.669 115.782 198.611 111.992 193.239 110.498C188.641 109.219 13.1936 109.308 8.76604 110.591C4.95957 111.695 0.445129 116.768 0.445129 119.942C0.445129 121.204 1.54853 130.057 2.89658 139.615C4.24462 149.174 7.82141 174.544 10.845 195.994L12.4016 207.036L12.4021 207.04L12.4021 207.04C25.0295 296.621 25.4769 299.795 27.1256 302.115C27.1615 302.165 27.198 302.215 27.2352 302.266L27.3128 302.371C27.3819 302.465 27.4536 302.562 27.5288 302.667C27.5974 302.764 27.6641 302.859 27.7294 302.952L27.7954 303.046C27.8466 303.12 27.8969 303.192 27.9465 303.264L27.9492 303.268L27.952 303.271L27.9589 303.281L27.9596 303.282C28.4119 303.934 28.8078 304.503 29.279 305.002C32.5847 308.502 39.5958 308.501 95.8011 308.495H95.8015L100.348 308.494L103.364 308.494H171.432L175.244 304.677C177.34 302.577 179.298 299.764 179.593 298.427C180.596 293.883 201.495 125.018 201.574 120.825ZM154.459 139.491C152.666 140.585 150.549 142.946 149.754 144.737C147.962 148.774 133.881 268.172 134.776 271.743C135.691 275.393 140.384 279.487 144.33 280.079C148.678 280.732 153.696 277.724 155.725 273.251C156.603 271.315 159.456 250.721 162.759 222.494C165.815 196.369 168.988 169.369 169.808 162.494C171.409 149.087 171.139 145.199 168.377 141.891C164.418 137.148 159.643 136.325 154.459 139.491ZM89.7265 148.114C90.104 146.1 91.7856 142.886 93.4631 140.973C96.0304 138.045 97.1727 137.494 100.681 137.494C102.973 137.494 105.895 138.228 107.173 139.125C112.278 142.705 112.283 142.779 112.276 209.712C112.27 269.592 112.195 272.107 110.34 274.927C106.795 280.312 101.689 281.782 96.273 278.977L96.075 278.875L95.9062 278.788C95.0597 278.353 94.3353 277.981 93.7138 277.481C90.0252 274.512 89.9653 267.035 89.5502 215.174V215.174L89.5198 211.386C89.2562 178.601 89.3491 150.129 89.7265 148.114ZM36.8124 139.328C30.2728 143.431 30.2159 145.239 35.2746 187.994C44.3933 265.059 45.2681 271.496 47.0245 274.474C48.788 277.463 53.7168 280.494 56.8143 280.494C59.8739 280.494 64.3094 277.478 65.965 274.272C67.8653 270.592 67.6106 264.92 64.3514 238.263C63.257 229.315 60.5708 206.694 58.381 187.994C56.1912 169.294 54.1342 152.038 53.8087 149.647C52.5785 140.607 43.5296 135.113 36.8124 139.328ZM90.193 38.1839C80.2468 27.0296 63.213 20.2209 47.3849 21.0724C45.8661 21.1546 44.5075 21.0199 44.3655 20.774C44.2236 20.5282 43.872 17.0648 43.5843 13.0774C43.2964 9.09086 42.9355 5.79467 42.7813 5.75391C42.6276 5.71285 38.1073 10.7884 32.7361 17.0335C14.8931 37.7779 13.3821 39.6511 13.9709 40.2857C14.5192 40.8769 28.2833 50.6517 39.8828 58.6869C43.1776 60.9695 45.98 63.0213 46.1101 63.2466C46.2402 63.4718 46.6565 63.6649 47.0354 63.6762C47.4246 63.6877 47.4408 60.2093 47.0726 55.667C46.7142 51.2509 46.6282 47.5177 46.8819 47.3712C48.0194 46.7145 55.2392 46.3236 60.3742 46.6407C82.0067 47.9782 95.7732 62.4215 100.01 88.2266C100.586 91.7313 101.118 94.7063 101.194 94.8377C101.974 96.1878 103.962 83.003 103.999 76.2424C104.08 61.2895 99.4736 48.5913 90.193 38.1839Z" fill="#C42131"/>
</svg>
