<svg width="34" height="34" viewBox="0 0 34 34" fill="none" xmlns="http://www.w3.org/2000/svg">
<path fill-rule="evenodd" clip-rule="evenodd" d="M16 3H18C25.1797 3 31 8.8203 31 16V18C31 25.1797 25.1797 31 18 31H3V16C3 8.8203 8.8203 3 16 3ZM0 16C0 7.16344 7.16344 0 16 0H18C26.8366 0 34 7.16344 34 16V18C34 26.8366 26.8366 34 18 34H3H0V31V16ZM9.5 18C10.3284 18 11 17.3284 11 16.5C11 15.6716 10.3284 15 9.5 15C8.67157 15 8 15.6716 8 16.5C8 17.3284 8.67157 18 9.5 18ZM18 16.5C18 17.3284 17.3284 18 16.5 18C15.6716 18 15 17.3284 15 16.5C15 15.6716 15.6716 15 16.5 15C17.3284 15 18 15.6716 18 16.5ZM23.5 18C24.3284 18 25 17.3284 25 16.5C25 15.6716 24.3284 15 23.5 15C22.6716 15 22 15.6716 22 16.5C22 17.3284 22.6716 18 23.5 18Z" fill="#C42131"/>
</svg>
