<svg width="36" height="35" viewBox="0 0 36 35" fill="none" xmlns="http://www.w3.org/2000/svg">
<path fill-rule="evenodd" clip-rule="evenodd" d="M17.5508 32C25.5591 32 32.0508 25.5081 32.0508 17.5C32.0508 9.49188 25.5591 3 17.5508 3V10.2487C21.5557 10.2487 24.8022 13.4952 24.8022 17.5C24.8022 21.5048 21.5557 24.7513 17.5508 24.7513V32ZM17.5508 35C27.2158 35 35.0508 27.165 35.0508 17.5C35.0508 7.83502 27.2158 0 17.5508 0C7.88574 0 0.0507812 7.83502 0.0507812 17.5C0.0507812 27.165 7.88574 35 17.5508 35ZM17.4355 24.7513C13.4307 24.7513 10.1841 21.5048 10.1841 17.5C10.1841 13.4952 13.4307 10.2487 17.4355 10.2487V24.7513Z" fill="#C42131"/>
</svg>
