<svg width="495" height="225" viewBox="0 0 495 225" fill="none" xmlns="http://www.w3.org/2000/svg">
<path fill-rule="evenodd" clip-rule="evenodd" d="M48.7708 0.630585C22.2611 0.630585 0.770752 22.1209 0.770752 48.6306V176.428C0.770752 202.938 22.2611 224.428 48.7708 224.428H446.669C473.179 224.428 494.669 202.938 494.669 176.428V48.6306C494.669 22.1209 473.179 0.630585 446.669 0.630585H48.7708ZM123.161 72.0081C118.126 68.9871 112.399 67.4766 105.979 67.4766C99.937 67.4766 94.0209 68.8612 88.2306 71.6304V44.8191C88.2306 42.0499 87.2236 39.7212 85.2096 37.833C83.3215 35.8191 80.9928 34.8121 78.2236 34.8121C75.3284 34.8121 72.8739 35.8191 70.8599 37.833C68.9718 39.7212 68.0277 42.0499 68.0277 44.8191V146.4C68.0277 149.169 69.0347 151.561 71.0487 153.575C73.0627 155.589 75.5173 156.596 78.4124 156.596C81.1816 156.596 83.5103 155.652 85.3984 153.764C87.2866 151.75 88.2306 149.295 88.2306 146.4V101.463C88.2306 97.3089 89.6782 93.8473 92.5733 91.0781C95.5943 88.3088 99.3076 86.9242 103.713 86.9242C107.993 86.9242 111.643 88.3088 114.664 91.0781C117.685 93.8473 119.196 97.3089 119.196 101.463V146.4C119.196 149.295 120.14 151.75 122.028 153.764C123.916 155.652 126.245 156.596 129.014 156.596C131.909 156.596 134.301 155.589 136.189 153.575C138.203 151.561 139.21 149.169 139.21 146.4V101.274C139.21 94.9802 137.825 89.2529 135.056 84.092C132.287 78.9312 128.322 74.9032 123.161 72.0081ZM158.435 84.092C155.288 89.2529 153.715 95.0431 153.715 101.463V123.365C153.715 129.91 155.288 135.827 158.435 141.113C161.582 146.274 165.861 150.302 171.274 153.197C176.687 156.092 182.729 157.54 189.4 157.54C195.945 157.54 201.925 156.092 207.337 153.197C212.75 150.176 217.03 146.085 220.176 140.924C223.449 135.764 225.086 129.91 225.086 123.365V101.463C225.086 95.0431 223.512 89.2529 220.365 84.092C217.218 78.9312 212.876 74.9032 207.337 72.0081C201.925 68.9871 195.945 67.4766 189.4 67.4766C182.855 67.4766 176.813 68.9871 171.274 72.0081C165.861 74.9032 161.582 78.9312 158.435 84.092ZM178.449 133.938C175.554 131.043 174.106 127.267 174.106 122.61V102.407C174.106 97.6236 175.554 93.8473 178.449 91.0781C181.344 88.183 184.994 86.7354 189.4 86.7354C193.806 86.7354 197.456 88.183 200.351 91.0781C203.372 93.9732 204.883 97.7495 204.883 102.407V122.61C204.883 127.267 203.372 131.043 200.351 133.938C197.456 136.834 193.806 138.281 189.4 138.281C184.994 138.281 181.344 136.834 178.449 133.938ZM336.557 77.4836C331.144 70.8122 323.655 67.4766 314.088 67.4766C309.683 67.4766 305.592 68.3577 301.816 70.1199C298.039 71.8822 294.829 74.3367 292.186 77.4836C289.543 74.3367 286.333 71.8822 282.557 70.1199C278.78 68.3577 274.69 67.4766 270.284 67.4766C260.843 67.4766 253.354 70.7493 247.815 77.2948C242.403 83.8403 239.696 92.0851 239.696 102.029V146.022C239.696 149.043 240.703 151.561 242.717 153.575C244.857 155.589 247.438 156.596 250.459 156.596C253.228 156.596 255.557 155.589 257.445 153.575C259.459 151.435 260.466 148.918 260.466 146.022V101.463C260.466 92.2739 263.99 87.6795 271.039 87.6795C278.214 87.6795 281.801 92.2739 281.801 101.463V146.022C281.801 149.043 282.808 151.561 284.822 153.575C286.836 155.589 289.291 156.596 292.186 156.596C295.081 156.596 297.536 155.589 299.55 153.575C301.564 151.561 302.571 149.043 302.571 146.022V101.463C302.571 92.2739 306.221 87.6795 313.522 87.6795C317.172 87.6795 319.816 88.9382 321.452 91.4557C323.214 93.8473 324.095 97.183 324.095 101.463V146.022C324.095 149.043 325.039 151.561 326.928 153.575C328.816 155.589 331.207 156.596 334.102 156.596C336.998 156.596 339.515 155.589 341.655 153.575C343.795 151.561 344.865 149.043 344.865 146.022V102.029C344.865 92.211 342.095 84.0291 336.557 77.4836ZM413.117 72.1969C407.705 69.05 401.537 67.4766 394.614 67.4766C387.691 67.4766 381.523 68.9871 376.11 72.0081C370.823 75.0291 366.67 79.12 363.649 84.2808C360.753 89.4417 359.306 95.0431 359.306 101.085V124.309C359.306 130.099 360.753 135.575 363.649 140.736C366.67 145.771 370.886 149.862 376.299 153.008C381.712 156.029 387.817 157.54 394.614 157.54C401.663 157.54 407.516 156.092 412.173 153.197C416.957 150.176 420.544 146.463 422.936 142.057C424.32 139.918 425.013 137.715 425.013 135.449C425.013 133.057 424.131 131.106 422.369 129.596C420.733 127.959 418.404 127.141 415.383 127.141C413.999 127.141 412.803 127.456 411.796 128.085C410.915 128.589 409.908 129.47 408.775 130.729C407.012 133.246 405.124 135.197 403.11 136.582C401.096 137.966 398.075 138.659 394.047 138.659C389.893 138.659 386.432 137.211 383.663 134.316C380.893 131.295 379.509 127.708 379.509 123.554V118.645H422.558C425.453 118.645 427.467 118.078 428.6 116.945C429.859 115.812 430.488 113.295 430.488 109.393V101.463C430.488 95.4208 428.978 89.8193 425.957 84.6585C422.936 79.3717 418.656 75.2179 413.117 72.1969ZM410.852 103.54H379.509V102.218C379.509 97.5606 380.893 93.7215 383.663 90.7005C386.558 87.6795 390.208 86.169 394.614 86.169C399.145 86.169 402.984 87.6795 406.131 90.7005C409.278 93.7215 410.852 97.4977 410.852 102.029V103.54Z" fill="#C42131"/>
</svg>
