<svg width="35" height="35" viewBox="0 0 35 35" fill="none" xmlns="http://www.w3.org/2000/svg">
<path fill-rule="evenodd" clip-rule="evenodd" d="M31.0508 17.0609C31.0508 24.7929 24.7827 31.0609 17.0508 31.0609C9.31885 31.0609 3.05078 24.7929 3.05078 17.0609C3.05078 9.32892 9.31885 3.06091 17.0508 3.06091C24.7827 3.06091 31.0508 9.32892 31.0508 17.0609ZM34.0508 17.0609C34.0508 26.4498 26.4395 34.0609 17.0508 34.0609C7.66211 34.0609 0.0507812 26.4498 0.0507812 17.0609C0.0507812 7.67206 7.66211 0.0609131 17.0508 0.0609131C26.4395 0.0609131 34.0508 7.67206 34.0508 17.0609ZM17.0508 24.4925C21.1553 24.4925 24.4824 21.1653 24.4824 17.0609C24.4824 12.9565 21.1553 9.62927 17.0508 9.62927C12.9463 9.62927 9.61914 12.9565 9.61914 17.0609C9.61914 21.1653 12.9463 24.4925 17.0508 24.4925Z" fill="#C42131"/>
</svg>
