<svg width="34" height="35" viewBox="0 0 34 35" fill="none" xmlns="http://www.w3.org/2000/svg">
<path fill-rule="evenodd" clip-rule="evenodd" d="M31 17.0609C31 24.7929 24.7319 31.0609 17 31.0609C9.26807 31.0609 3 24.7929 3 17.0609C3 9.32892 9.26807 3.06091 17 3.06091C24.7319 3.06091 31 9.32892 31 17.0609ZM34 17.0609C34 26.4498 26.3887 34.0609 17 34.0609C7.61133 34.0609 0 26.4498 0 17.0609C0 7.67206 7.61133 0.0609131 17 0.0609131C26.3887 0.0609131 34 7.67206 34 17.0609ZM19.0352 8.44022C18.9399 8.34534 18.3506 8.17871 17.5259 8.01355C17.3994 7.98822 16.8628 8.02271 16.667 8.06873C16.582 8.08881 16.4243 8.11575 16.3174 8.12851C16.0024 8.16611 15.4639 8.30121 15.0757 8.44006C14.3721 8.69147 13.48 9.26291 13.0532 9.73581C12.5576 10.2851 12.4238 10.4518 12.2021 10.7953C11.959 11.1721 11.6338 11.8287 11.6338 11.9425C11.6338 11.9738 11.6191 12.0168 11.6006 12.0381C11.5493 12.0971 11.4146 12.5418 11.3203 12.9612C11.2461 13.2943 11.2363 13.4481 11.2368 14.2938C11.2378 15.534 11.2861 15.7752 11.7715 16.9584C12.0068 17.5326 12.9277 19.4929 13.3569 20.3349C13.5396 20.6929 13.7627 21.1322 13.853 21.3112C14.019 21.6412 14.5688 22.7123 14.7822 23.1215C14.8467 23.2446 15.0522 23.6473 15.2402 24.0165C16.1143 25.7376 16.2598 25.9497 16.646 26.0665C16.7622 26.1017 16.9448 26.1234 17.0547 26.1151C17.293 26.0969 17.644 25.9235 17.7734 25.7597C17.8574 25.6536 18.4741 24.524 18.8472 23.7927C18.9268 23.6361 19.0928 23.319 19.2153 23.088C19.3384 22.8569 19.439 22.6616 19.439 22.6538C19.439 22.6491 19.4717 22.5846 19.5215 22.4905L19.6299 22.2875C19.7354 22.0938 19.8213 21.9285 19.8213 21.92C19.8213 21.9116 19.8745 21.8084 19.9399 21.6909C20.0054 21.5733 20.1152 21.3665 20.1841 21.2314C20.3838 20.8407 20.5903 20.4344 20.7129 20.1925C20.9487 19.7269 21.7642 18.0011 21.9146 17.65C22.6387 15.9556 22.7998 15.239 22.7563 13.9052C22.7251 12.9521 22.605 12.4429 22.1865 11.4876C21.771 10.5386 20.9863 9.60168 20.0894 8.98273C19.7383 8.74063 19.2344 8.47647 19.1235 8.47647C19.0947 8.47647 19.0552 8.46014 19.0352 8.44022ZM17.6074 11.3937C17.5327 11.3735 17.4648 11.3591 17.4111 11.3528C17.1406 11.3212 16.7358 11.3256 16.5249 11.3623C15.6836 11.5089 14.9136 12.203 14.5591 13.1344C14.4634 13.3863 14.4487 13.4825 14.4346 13.9686C14.4199 14.4805 14.4258 14.5402 14.521 14.8432C14.749 15.5689 15.1841 16.1236 15.8047 16.4801C16.2305 16.7245 16.8242 16.843 17.269 16.7724C18.4185 16.5901 19.1992 15.8473 19.4956 14.6548C19.6431 14.0613 19.5117 13.1743 19.1982 12.6462C18.9507 12.229 18.4546 11.7469 18.0952 11.5746C17.9458 11.5029 17.7622 11.4357 17.6074 11.3937Z" fill="#C42131"/>
</svg>
