<svg width="1142" height="393" viewBox="0 0 1142 393" fill="none" xmlns="http://www.w3.org/2000/svg">
<path fill-rule="evenodd" clip-rule="evenodd" d="M65.9245 263.161V225.733V223.727C65.9245 204.669 84.0829 189.058 106.252 189.058C128.422 189.058 146.58 204.669 146.58 223.727V225.733V262.847V329.74V363.405C146.58 379.016 161.384 391.742 179.542 391.742C197.701 391.742 212.504 379.016 212.504 363.405V329.74V262.847V225.733V225.42V223.414C212.504 204.355 230.663 188.745 252.832 188.745C275.001 188.745 293.16 204.355 293.16 223.414V225.42V262.847V363.405C293.16 379.016 307.964 391.742 326.122 391.742C344.281 391.742 359.084 379.016 359.084 363.405V329.74V225.733C359.084 225.608 359.084 225.545 359.084 225.42C358.866 175.329 311.172 134.391 252.832 134.391C224.464 134.391 198.649 144.045 179.542 159.781C160.436 144.108 134.62 134.391 106.252 134.391C47.9119 134.391 0.145851 175.329 0 225.42C0 225.545 0 225.608 0 225.733V329.74V363.405C0 379.016 14.8038 391.742 32.9623 391.742C51.1207 391.742 65.9245 379.016 65.9245 363.405V262.847V263.161Z" fill="#C42131"/>
<path fill-rule="evenodd" clip-rule="evenodd" d="M543.264 391.945C601.75 391.945 649.516 350.819 649.516 300.603V225.936C649.516 175.657 601.677 134.594 543.264 134.594C484.778 134.594 437.012 175.72 437.012 225.936V300.603C437.012 350.882 484.851 391.945 543.264 391.945ZM543.264 336.463C570.1 336.463 592.124 317.592 592.124 294.459V232.582C592.124 209.511 570.173 190.578 543.264 190.578C516.427 190.578 494.404 209.448 494.404 232.582V294.459C494.404 317.53 516.354 336.463 543.264 336.463Z" fill="#C42131"/>
<path fill-rule="evenodd" clip-rule="evenodd" d="M827.579 392.023C886.065 392.023 933.831 350.897 933.831 300.68V226.014C933.831 175.735 885.992 134.671 827.579 134.671C810.004 134.671 793.377 138.37 778.719 144.953V80.6304C778.719 67.0262 765.811 55.9297 749.986 55.9297C734.162 55.9297 721.254 67.0262 721.254 80.6304V226.014V265.447V300.68C721.254 350.96 769.093 392.023 827.506 392.023H827.579ZM771.208 333.343C783.897 333.343 794.325 324.378 794.325 313.47C794.325 302.561 783.897 293.596 771.208 293.596C758.519 293.596 748.09 302.561 748.09 313.47C748.09 324.378 758.519 333.343 771.208 333.343ZM827.579 333.343C840.268 333.343 850.696 324.378 850.696 313.47C850.696 302.561 840.268 293.596 827.579 293.596C814.89 293.596 804.462 302.561 804.462 313.47C804.462 324.378 814.89 333.343 827.579 333.343ZM883.95 333.343C896.639 333.343 907.068 324.378 907.068 313.47C907.068 302.561 896.639 293.596 883.95 293.596C871.261 293.596 860.833 302.561 860.833 313.47C860.833 324.378 871.261 333.343 883.95 333.343ZM771.135 285.697C783.824 285.697 794.252 276.732 794.252 265.823C794.252 254.915 783.824 245.95 771.135 245.95C758.446 245.95 748.017 254.915 748.017 265.823C748.017 276.732 758.446 285.697 771.135 285.697ZM827.506 285.697C840.195 285.697 850.623 276.732 850.623 265.823C850.623 254.915 840.195 245.95 827.506 245.95C814.817 245.95 804.389 254.915 804.389 265.823C804.389 276.732 814.817 285.697 827.506 285.697ZM883.877 285.697C896.566 285.697 906.995 276.732 906.995 265.823C906.995 254.915 896.566 245.95 883.877 245.95C871.188 245.95 860.76 254.915 860.76 265.823C860.76 276.732 871.188 285.697 883.877 285.697ZM771.062 238.176C783.751 238.176 794.179 229.211 794.179 218.303C794.179 207.394 783.751 198.429 771.062 198.429C758.373 198.429 747.945 207.394 747.945 218.303C747.945 229.211 758.373 238.176 771.062 238.176ZM827.433 238.176C840.122 238.176 850.55 229.211 850.55 218.303C850.55 207.394 840.122 198.429 827.433 198.429C814.744 198.429 804.316 207.394 804.316 218.303C804.316 229.211 814.744 238.176 827.433 238.176ZM883.804 238.176C896.493 238.176 906.922 229.211 906.922 218.303C906.922 207.394 896.493 198.429 883.804 198.429C871.115 198.429 860.687 207.394 860.687 218.303C860.687 229.211 871.115 238.176 883.804 238.176Z" fill="#C42131"/>
<path fill-rule="evenodd" clip-rule="evenodd" d="M1035.37 134.594C1051.2 134.594 1064.11 145.69 1064.11 159.295V367.307C1064.11 380.912 1051.2 392.008 1035.37 392.008C1019.55 392.008 1006.64 380.912 1006.64 367.307V159.295C1006.64 145.69 1019.55 134.594 1035.37 134.594Z" fill="#C42131"/>
<path d="M511.317 273.555C510.151 273.555 509.13 273.429 508.109 273.304C507.088 273.116 506.14 272.865 505.265 272.489C504.39 272.113 503.587 271.674 502.785 271.11L504.827 268.978C505.702 269.668 506.723 270.107 507.744 270.483C508.838 270.796 510.005 270.984 511.245 270.984C512.922 270.984 514.234 270.734 515.182 270.169C516.131 269.605 516.568 268.853 516.568 267.913C516.568 267.16 516.349 266.596 515.839 266.157C515.401 265.781 514.745 265.468 514.016 265.279C513.213 265.091 512.411 264.903 511.536 264.778C510.661 264.653 509.786 264.527 508.911 264.339C508.036 264.151 507.161 263.9 506.431 263.524C505.702 263.148 505.046 262.646 504.608 261.894C504.171 261.204 503.952 260.264 503.952 259.073C503.952 257.192 504.681 255.75 506.14 254.747C507.598 253.744 509.64 253.18 512.265 253.18C513.505 253.18 514.745 253.368 515.912 253.681C517.079 253.995 518.245 254.559 519.412 255.249L517.516 257.506C516.641 256.941 515.766 256.503 514.891 256.252C514.016 256.001 513.141 255.813 512.265 255.813C510.661 255.813 509.421 256.064 508.546 256.628C507.671 257.192 507.234 257.944 507.234 258.948C507.234 259.7 507.452 260.264 508.036 260.64C508.546 261.016 509.203 261.33 510.078 261.518C510.88 261.706 511.828 261.894 512.776 262.019C513.651 262.145 514.453 262.333 515.328 262.521C516.203 262.709 516.933 263.023 517.662 263.399C518.391 263.775 518.902 264.339 519.339 265.029C519.777 265.718 519.996 266.596 519.996 267.724C519.996 269.543 519.266 270.984 517.735 271.988C516.203 272.991 514.162 273.492 511.39 273.492L511.317 273.555ZM537.498 273.367V253.305H540.779V273.367H537.498ZM524.225 273.367V253.305H527.507V273.367H524.225ZM526.267 264.841V262.145H539.248V264.841H526.267ZM554.27 273.618C552.593 273.618 551.208 273.304 549.968 272.677C548.728 272.05 547.78 271.173 547.124 270.107C546.467 268.978 546.103 267.724 546.103 266.22V260.515C546.103 259.01 546.467 257.694 547.124 256.628C547.78 255.5 548.728 254.685 549.968 254.058C551.208 253.431 552.666 253.117 554.27 253.117C555.948 253.117 557.333 253.431 558.573 254.058C559.813 254.685 560.761 255.562 561.417 256.628C562.073 257.756 562.438 259.01 562.438 260.515V266.22C562.438 267.724 562.073 268.978 561.417 270.107C560.761 271.235 559.813 272.05 558.573 272.677C557.333 273.304 555.875 273.618 554.27 273.618ZM554.27 270.859C555.729 270.859 556.896 270.42 557.771 269.605C558.646 268.79 559.084 267.662 559.084 266.345V260.452C559.084 259.073 558.646 258.007 557.771 257.129C556.896 256.314 555.729 255.876 554.27 255.876C552.812 255.876 551.645 256.314 550.77 257.129C549.895 257.944 549.457 259.073 549.457 260.452V266.345C549.457 267.724 549.895 268.79 550.77 269.605C551.645 270.42 552.812 270.859 554.27 270.859ZM569.147 265.656V262.96H576.586C577.679 262.96 578.482 262.646 579.138 262.019C579.794 261.393 580.086 260.578 580.086 259.512C580.086 258.446 579.794 257.631 579.138 257.004C578.482 256.377 577.607 256.064 576.586 256.064H569.147V253.368H576.513C577.898 253.368 579.138 253.619 580.232 254.12C581.253 254.622 582.128 255.374 582.638 256.252C583.222 257.192 583.513 258.258 583.513 259.512C583.513 260.766 583.222 261.831 582.638 262.709C582.055 263.65 581.253 264.339 580.232 264.841C579.211 265.342 577.971 265.593 576.513 265.593H569.147V265.656ZM567.47 273.429V253.368H570.752V273.429H567.47Z" fill="#C42131"/>
<path d="M1004.35 102.017C999.004 99.7036 996.88 93.1422 1001.08 89.1116C1004.04 86.2775 1007.47 83.8134 1011.28 81.8085C1018.55 77.9863 1026.91 75.9856 1035.44 76.032C1043.96 76.0784 1052.29 78.1701 1059.5 82.0712C1063.28 84.1152 1066.67 86.6134 1069.58 89.4756C1073.74 93.5587 1071.53 100.093 1066.16 102.345C1061.62 104.247 1056.45 102.26 1052.61 99.19C1051.44 98.2575 1050.17 97.4165 1048.81 96.6806C1044.77 94.4919 1040.09 93.3184 1035.31 93.2924C1030.53 93.2664 1025.83 94.3888 1021.76 96.5332C1020.37 97.2624 1019.07 98.0999 1017.88 99.032C1014.02 102.052 1008.85 103.965 1004.35 102.017Z" fill="#C42131"/>
<path d="M978.874 78.1586C973.366 75.7738 971.161 69.0546 975.056 64.4884C980.839 57.7088 988.125 51.9316 996.536 47.5091C1008.53 41.2024 1022.33 37.9013 1036.39 37.9779C1050.45 38.0544 1064.21 41.5057 1076.11 47.9425C1084.45 52.4541 1091.64 58.3066 1097.33 65.1444C1101.16 69.7613 1098.87 76.4513 1093.34 78.773C1088.66 80.7343 1083.33 78.8059 1080.03 74.9531C1075.98 70.2198 1070.92 66.1594 1065.08 63.0033C1056.45 58.3319 1046.47 55.8272 1036.26 55.7717C1026.06 55.7161 1016.04 58.1118 1007.34 62.6888C1001.44 65.7896 996.304 69.8079 992.178 74.5134C988.846 78.3133 983.511 80.1666 978.874 78.1586Z" fill="#C42131"/>
<path d="M953.478 55.4067C946.985 52.5955 944.386 44.6872 948.828 39.1805C957.191 28.8143 968 20.0147 980.61 13.384C997.45 4.52921 1016.83 -0.105683 1036.57 0.00182811C1056.31 0.109339 1075.62 4.95499 1092.33 13.9925C1104.84 20.7575 1115.51 29.6699 1123.72 40.1212C1128.09 45.6863 1125.39 53.56 1118.87 56.2969C1113.35 58.6089 1107.06 56.3602 1103.35 51.6714C1097.05 43.7075 1088.89 36.9135 1079.34 31.7468C1066.48 24.7903 1051.61 21.0605 1036.42 20.9778C1021.22 20.895 1006.3 24.4626 993.342 31.2784C983.695 36.3507 975.418 43.0717 968.998 50.9867C965.245 55.6135 958.945 57.7739 953.478 55.4067Z" fill="#C42131"/>
</svg>
