<svg width="494" height="224" viewBox="0 0 494 224" fill="none" xmlns="http://www.w3.org/2000/svg">
<rect width="493.899" height="223.798" rx="48" fill="#C42131"/>
<path fill-rule="evenodd" clip-rule="evenodd" d="M390.315 48.6347C388.665 50.6805 389.63 53.6185 392.042 54.6629C394.074 55.5423 396.414 54.7397 397.808 53.0208C400.193 50.0804 403.268 47.5834 406.852 45.699C411.668 43.1669 417.21 41.8415 422.855 41.8723C428.5 41.903 434.022 43.2887 438.8 45.873C442.349 47.7925 445.382 50.3166 447.721 53.2752C449.099 55.0172 451.438 55.8526 453.486 54.9936C455.91 53.9769 456.913 51.0517 455.289 48.9842C452.24 45.1015 448.274 41.7904 443.628 39.2772C437.42 35.9196 430.246 34.1194 422.912 34.0795C415.579 34.0396 408.378 35.7615 402.122 39.0511C397.437 41.5145 393.422 44.7836 390.315 48.6347ZM401.477 63.1155C399.431 62.2295 398.612 59.7333 400.059 58.0369C402.207 55.5182 404.914 53.3719 408.039 51.7289C412.495 49.3859 417.623 48.1595 422.846 48.188C428.069 48.2164 433.179 49.4986 437.6 51.8899C440.699 53.566 443.373 55.7403 445.483 58.2806C446.909 59.9958 446.058 62.4812 444.001 63.3437C442.264 64.0724 440.284 63.356 439.059 61.9246C437.554 60.1662 435.673 58.6577 433.505 57.4852C430.297 55.7497 426.588 54.8192 422.797 54.7986C419.007 54.7779 415.285 55.6679 412.051 57.3683C409.86 58.5203 407.953 60.0132 406.42 61.7613C405.182 63.173 403.2 63.8615 401.477 63.1155ZM345.27 179.719C366.998 179.719 384.744 164.44 384.744 145.784V118.045C384.744 99.3659 366.971 84.1104 345.27 84.1104C338.741 84.1104 332.564 85.4846 327.118 87.9301V64.0338C327.118 58.9797 322.323 54.8573 316.444 54.8573C310.565 54.8573 305.769 58.9797 305.769 64.0338V118.045V132.695V145.784C305.769 164.464 323.542 179.719 345.243 179.719H345.27ZM324.328 157.919C329.042 157.919 332.916 154.588 332.916 150.536C332.916 146.483 329.042 143.152 324.328 143.152C319.613 143.152 315.739 146.483 315.739 150.536C315.739 154.588 319.613 157.919 324.328 157.919ZM345.27 157.919C349.984 157.919 353.858 154.588 353.858 150.536C353.858 146.483 349.984 143.152 345.27 143.152C340.556 143.152 336.682 146.483 336.682 150.536C336.682 154.588 340.556 157.919 345.27 157.919ZM366.212 157.919C370.926 157.919 374.801 154.588 374.801 150.536C374.801 146.483 370.926 143.152 366.212 143.152C361.498 143.152 357.624 146.483 357.624 150.536C357.624 154.588 361.498 157.919 366.212 157.919ZM324.3 140.218C329.014 140.218 332.889 136.887 332.889 132.835C332.889 128.782 329.014 125.452 324.3 125.452C319.586 125.452 315.712 128.782 315.712 132.835C315.712 136.887 319.586 140.218 324.3 140.218ZM345.243 140.218C349.957 140.218 353.831 136.887 353.831 132.835C353.831 128.782 349.957 125.452 345.243 125.452C340.529 125.452 336.655 128.782 336.655 132.835C336.655 136.887 340.529 140.218 345.243 140.218ZM366.185 140.218C370.899 140.218 374.774 136.887 374.774 132.835C374.774 128.782 370.899 125.452 366.185 125.452C361.471 125.452 357.597 128.782 357.597 132.835C357.597 136.887 361.471 140.218 366.185 140.218ZM324.273 122.563C328.987 122.563 332.862 119.233 332.862 115.18C332.862 111.128 328.987 107.797 324.273 107.797C319.559 107.797 315.685 111.128 315.685 115.18C315.685 119.233 319.559 122.563 324.273 122.563ZM345.216 122.563C349.93 122.563 353.804 119.233 353.804 115.18C353.804 111.128 349.93 107.797 345.216 107.797C340.502 107.797 336.627 111.128 336.627 115.18C336.627 119.233 340.502 122.563 345.216 122.563ZM366.158 122.563C370.872 122.563 374.747 119.233 374.747 115.18C374.747 111.128 370.872 107.797 366.158 107.797C361.444 107.797 357.57 111.128 357.57 115.18C357.57 119.233 361.444 122.563 366.158 122.563ZM62.3083 131.729V131.845V169.087C62.3083 174.887 56.8086 179.615 50.0625 179.615C43.3165 179.615 37.8168 174.887 37.8168 169.087V156.58V117.941V117.824C37.871 99.215 55.6165 84.0062 77.2904 84.0062C87.8294 84.0062 97.4201 87.6163 104.518 93.4389C111.617 87.593 121.207 84.0062 131.746 84.0062C153.42 84.0062 171.139 99.215 171.22 117.824V117.941V156.58V169.087C171.22 174.887 165.72 179.615 158.974 179.615C152.228 179.615 146.728 174.887 146.728 169.087V131.729V117.824V117.079C146.728 109.999 139.982 104.199 131.746 104.199C123.51 104.199 116.764 109.999 116.764 117.079V117.824V117.941V131.729V156.58V169.087C116.764 174.887 111.264 179.615 104.518 179.615C97.7723 179.615 92.2725 174.887 92.2725 169.087V156.58V131.729V117.941V117.195C92.2725 110.115 85.5265 104.316 77.2904 104.316C69.0543 104.316 62.3083 110.115 62.3083 117.195V117.941V131.729ZM279.118 145.755C279.118 164.411 261.372 179.69 239.644 179.69C217.943 179.69 200.17 164.435 200.17 145.755V118.016C200.17 99.3603 217.916 84.0816 239.644 84.0816C261.345 84.0816 279.118 99.337 279.118 118.016V145.755ZM257.796 143.473C257.796 152.067 249.614 159.078 239.644 159.078C229.647 159.078 221.492 152.044 221.492 143.473V120.485C221.492 111.891 229.674 104.88 239.644 104.88C249.641 104.88 257.796 111.914 257.796 120.485V143.473ZM433.142 93.2582C433.142 88.2041 428.346 84.0816 422.467 84.0816C416.588 84.0816 411.793 88.2041 411.793 93.2582V170.537C411.793 175.591 416.588 179.713 422.467 179.713C428.346 179.713 433.142 175.591 433.142 170.537V93.2582ZM227.776 135.707C227.342 135.707 226.963 135.66 226.584 135.614C226.204 135.544 225.852 135.451 225.527 135.311C225.202 135.171 224.904 135.008 224.606 134.799L225.365 134.007C225.69 134.263 226.069 134.426 226.448 134.566C226.855 134.682 227.288 134.752 227.749 134.752C228.372 134.752 228.859 134.659 229.212 134.449C229.564 134.24 229.726 133.96 229.726 133.611C229.726 133.331 229.645 133.122 229.456 132.959C229.293 132.819 229.049 132.703 228.778 132.633C228.48 132.563 228.182 132.493 227.857 132.446C227.532 132.4 227.207 132.353 226.882 132.283C226.557 132.213 226.232 132.12 225.961 131.98C225.69 131.841 225.446 131.654 225.283 131.375C225.121 131.119 225.039 130.769 225.039 130.327C225.039 129.628 225.31 129.092 225.852 128.72C226.394 128.347 227.153 128.138 228.128 128.138C228.589 128.138 229.049 128.207 229.483 128.324C229.916 128.44 230.35 128.65 230.783 128.906L230.079 129.745C229.754 129.535 229.428 129.372 229.103 129.279C228.778 129.186 228.453 129.116 228.128 129.116C227.532 129.116 227.071 129.209 226.746 129.419C226.421 129.628 226.259 129.908 226.259 130.28C226.259 130.56 226.34 130.769 226.557 130.909C226.746 131.049 226.99 131.165 227.315 131.235C227.613 131.305 227.965 131.375 228.318 131.422C228.588 131.46 228.84 131.515 229.104 131.573C229.157 131.584 229.211 131.596 229.266 131.608C229.591 131.678 229.862 131.794 230.133 131.934C230.404 132.074 230.593 132.283 230.756 132.539C230.919 132.796 231 133.122 231 133.541C231 134.216 230.729 134.752 230.16 135.125C229.591 135.497 228.832 135.684 227.803 135.684L227.776 135.707ZM237.502 135.637V132.47H233.79V135.637H232.571V128.184H233.79V131.468H237.502V128.184H238.721V135.637H237.502ZM243.733 135.73C243.11 135.73 242.595 135.614 242.135 135.381C241.674 135.148 241.322 134.822 241.078 134.426C240.834 134.007 240.699 133.541 240.699 132.982V130.863C240.699 130.304 240.834 129.814 241.078 129.419C241.322 128.999 241.674 128.697 242.135 128.464C242.595 128.231 243.137 128.114 243.733 128.114C244.356 128.114 244.871 128.231 245.332 128.464C245.792 128.697 246.144 129.023 246.388 129.419C246.632 129.838 246.768 130.304 246.768 130.863V132.982C246.768 133.541 246.632 134.007 246.388 134.426C246.144 134.845 245.792 135.148 245.332 135.381C244.871 135.614 244.329 135.73 243.733 135.73ZM243.733 134.706C244.275 134.706 244.709 134.542 245.034 134.24C245.359 133.937 245.521 133.518 245.521 133.029V130.839C245.521 130.327 245.359 129.931 245.034 129.605C244.709 129.302 244.275 129.139 243.733 129.139C243.191 129.139 242.758 129.302 242.433 129.605C242.108 129.908 241.945 130.327 241.945 130.839V133.029C241.945 133.541 242.108 133.937 242.433 134.24C242.758 134.542 243.191 134.706 243.733 134.706ZM249.856 135.66V132.749H251.996C252.538 132.749 252.999 132.656 253.378 132.47C253.757 132.283 254.055 132.027 254.272 131.678C254.489 131.352 254.597 130.956 254.597 130.49C254.597 130.024 254.489 129.628 254.272 129.279C254.083 128.953 253.757 128.673 253.378 128.487C252.972 128.301 252.511 128.207 251.996 128.207H249.856H249.26H248.637V135.66H249.856ZM252.023 131.771H249.856V129.209H252.023C252.403 129.209 252.728 129.325 252.972 129.558C253.216 129.791 253.324 130.094 253.324 130.49C253.324 130.886 253.216 131.189 252.972 131.422C252.728 131.654 252.43 131.771 252.023 131.771ZM409.727 67.1846C408.167 68.682 408.956 71.1196 410.94 71.979C412.612 72.7027 414.534 71.9919 415.968 70.8701C416.411 70.5238 416.893 70.2127 417.408 69.9418C418.923 69.1451 420.667 68.7281 422.443 68.7378C424.219 68.7475 425.956 69.1834 427.46 69.9965C427.965 70.27 428.437 70.5824 428.871 70.9288C430.299 72.0693 432.219 72.8077 433.905 72.1009C435.899 71.2642 436.719 68.8368 435.177 67.3198C434.096 66.2565 432.836 65.3284 431.432 64.569C428.753 63.1197 425.656 62.3427 422.49 62.3254C419.325 62.3082 416.217 63.0515 413.516 64.4715C412.1 65.2163 410.825 66.1317 409.727 67.1846Z" fill="white"/>
</svg>
