<svg width="35" height="33" viewBox="0 0 35 33" fill="none" xmlns="http://www.w3.org/2000/svg">
<path fill-rule="evenodd" clip-rule="evenodd" d="M20.5 23C26.0228 23 30.5 18.5228 30.5 13C30.5 7.47715 26.0228 3 20.5 3C14.9772 3 10.5 7.47715 10.5 13C10.5 18.5228 14.9772 23 20.5 23ZM20.5 26C22.4255 26 24.2533 25.5814 25.8972 24.8302L31.4466 31.7773C31.9637 32.4245 32.9075 32.5301 33.5548 32.0131C34.2021 31.496 34.3076 30.5521 33.7906 29.9049L28.4832 23.2608C31.5363 20.882 33.5 17.1703 33.5 13C33.5 5.8203 27.6797 0 20.5 0C13.3203 0 7.5 5.8203 7.5 13C7.5 20.1797 13.3203 26 20.5 26ZM2.49512 27.0911C1.66669 27.0911 0.995117 27.7627 0.995117 28.5911C0.995117 29.4196 1.66669 30.0911 2.49512 30.0911H15.0911C15.9196 30.0911 16.5911 29.4196 16.5911 28.5911C16.5911 27.7627 15.9196 27.0911 15.0911 27.0911H2.49512ZM0 17.298C0 16.4695 0.671573 15.798 1.5 15.798H4.79797C5.6264 15.798 6.29797 16.4695 6.29797 17.298C6.29797 18.1264 5.6264 18.798 4.79797 18.798H1.5C0.671573 18.798 0 18.1264 0 17.298ZM2.5 4.14899C1.67157 4.14899 1 4.82056 1 5.64899C1 6.47741 1.67157 7.14899 2.5 7.14899H5.79797C6.6264 7.14899 7.29797 6.47741 7.29797 5.64899C7.29797 4.82056 6.6264 4.14899 5.79797 4.14899L2.5 4.14899Z" fill="#C42131"/>
</svg>
