<svg width="22" height="26" viewBox="0 0 22 26" fill="none" xmlns="http://www.w3.org/2000/svg">
<path fill-rule="evenodd" clip-rule="evenodd" d="M4.58348 10.4755C4.58348 14.2131 7.61344 17.2431 11.3511 17.2431C15.0887 17.2431 18.1187 14.2131 18.1187 10.4755C18.1187 6.73784 15.0887 3.70789 11.3511 3.70789C7.61344 3.70789 4.58348 6.73784 4.58348 10.4755ZM7.65055 19.5177C8.79187 19.9853 10.0414 20.2431 11.3511 20.2431C16.7456 20.2431 21.1187 15.87 21.1187 10.4755C21.1187 5.08098 16.7456 0.707886 11.3511 0.707886C5.95658 0.707886 1.58348 5.08098 1.58348 10.4755C1.58348 13.4748 2.93538 16.1584 5.06307 17.9502L1.07375 22.9442C0.556698 23.5915 0.662262 24.5353 1.30953 25.0524C1.95679 25.5694 2.90066 25.4639 3.41771 24.8166L7.65055 19.5177Z" fill="#C42131"/>
</svg>
